<?xml version="1.0" standalone="no"?>
<!DOCTYPE svg PUBLIC "-//W3C//DTD SVG 20010904//EN"
 "http://www.w3.org/TR/2001/REC-SVG-20010904/DTD/svg10.dtd">
<svg version="1.0" xmlns="http://www.w3.org/2000/svg"
 width="712.000000pt" height="301.000000pt" viewBox="0 0 712.000000 301.000000"
 preserveAspectRatio="xMidYMid meet">

<g transform="translate(0.000000,301.000000) scale(0.100000,-0.100000)"
stroke="none">
<path fill="#7386F7" d="M1124 2925 c-163 -29 -306 -100 -426 -213 -172 -163 -252 -344 -263
-602 -8 -167 -2 -156 -87 -164 -88 -8 -145 -34 -193 -88 -73 -81 -70 -42 -73
-743 -2 -416 1 -653 8 -699 11 -71 42 -139 85 -188 42 -49 134 -106 188 -118
37 -8 309 -10 917 -8 l865 3 60 30 c32 17 82 53 110 80 113 111 117 140 113
892 -4 675 -3 665 -79 748 -52 56 -107 82 -191 91 -37 4 -73 13 -79 20 -6 8
-15 79 -19 161 -12 206 -37 290 -135 438 -177 268 -500 413 -801 360z m275
-250 c138 -33 270 -129 344 -251 61 -102 72 -150 72 -319 l0 -150 -557 -3
c-507 -2 -558 -1 -573 14 -14 15 -16 33 -10 138 8 144 24 218 67 300 39 74
144 181 215 219 117 62 304 84 442 52z m231 -1195 c17 -17 20 -33 20 -125 0
-146 -2 -148 -160 -143 -65 2 -122 7 -127 11 -14 15 -10 242 6 260 11 14 34
17 127 17 101 0 116 -2 134 -20z m474 -2 c12 -17 16 -49 16 -130 0 -140 2
-138 -146 -138 -152 0 -154 2 -154 145 0 144 2 145 154 145 107 0 116 -1 130
-22z m-994 -148 c15 -15 20 -33 20 -74 0 -89 11 -86 -372 -86 -326 0 -327 0
-342 22 -23 33 -21 113 4 138 19 19 33 20 345 20 312 0 326 -1 345 -20z m520
-310 c17 -17 20 -33 20 -120 0 -137 -3 -140 -148 -140 -71 0 -114 4 -125 13
-34 25 -35 218 -1 252 12 12 41 15 125 15 96 0 111 -2 129 -20z m470 10 c11
-7 16 -35 18 -117 3 -97 1 -111 -16 -133 -19 -24 -25 -25 -132 -25 -146 0
-150 4 -150 146 0 136 3 139 153 139 61 0 119 -5 127 -10z m-1021 -51 c38 -14
51 -35 51 -88 0 -28 -7 -48 -20 -61 -19 -19 -33 -20 -345 -20 -318 0 -325 0
-346 21 -18 18 -21 30 -17 75 3 30 8 57 11 61 16 16 100 21 358 22 179 1 287
-3 308 -10z"/>
<path fill="#2B2C2E" d="M4945 2425 c-5 -2 -50 -7 -98 -10 l-88 -7 3 -36 c3 -37 3 -37 61 -46
l57 -8 0 -97 0 -97 -64 4 c-147 9 -274 -64 -331 -190 -24 -52 -30 -80 -33
-159 -7 -163 37 -262 139 -313 91 -45 208 -30 276 36 l33 32 0 -35 c0 -19 5
-40 12 -47 13 -13 117 -16 181 -6 35 6 37 8 37 45 0 37 -2 39 -30 39 l-30 0 0
440 c0 424 -1 440 -19 450 -19 9 -84 13 -106 5z m-90 -387 l25 -11 -2 -220 -3
-220 -28 -21 c-36 -27 -98 -27 -128 -1 -74 66 -90 305 -28 415 36 63 102 87
164 58z"/>
<path fill="#2B2C2E" d="M3000 2301 c0 -39 1 -40 43 -48 l42 -9 3 -351 2 -351 -22 -6 c-13 -3
-33 -6 -45 -6 -20 0 -23 -5 -23 -40 l0 -40 337 2 337 3 18 160 c9 88 16 160
15 161 -1 1 -24 4 -51 6 l-49 3 -45 -117 -45 -118 -46 0 c-25 0 -76 -3 -114
-7 l-67 -6 2 354 3 354 58 9 57 8 0 39 0 39 -205 0 -205 0 0 -39z"/>
<path fill="#2B2C2E" d="M4008 2116 c-99 -27 -175 -102 -204 -204 -24 -80 -16 -239 16 -310
49 -113 154 -168 304 -160 85 5 187 41 221 78 15 17 15 21 0 50 -12 23 -21 30
-33 24 -96 -40 -187 -46 -239 -14 -38 23 -71 83 -80 145 l-6 45 186 0 187 0 6
26 c11 44 -1 177 -20 213 -54 102 -192 146 -338 107z m142 -91 c19 -21 24 -39
28 -105 l5 -80 -97 0 -96 0 0 43 c0 60 18 116 45 143 33 33 84 32 115 -1z"/>
<path fill="#2B2C2E" d="M5401 2115 c-92 -26 -147 -69 -176 -137 -38 -93 5 -225 84 -257 l29
-13 -44 -42 c-41 -39 -44 -46 -44 -93 0 -36 6 -58 21 -77 12 -15 20 -28 18
-30 -2 -1 -17 -10 -32 -20 -41 -25 -67 -74 -67 -124 0 -74 38 -124 125 -164
44 -20 65 -23 180 -23 113 1 138 4 190 24 134 53 200 129 200 231 0 73 -26
117 -89 149 -44 23 -63 26 -211 31 -141 4 -166 8 -184 24 -23 21 -28 70 -9 82
6 4 52 8 102 8 107 2 158 15 214 56 59 42 83 96 83 181 l0 69 54 0 55 0 0 70
0 70 -42 0 c-27 0 -59 -9 -86 -25 l-42 -24 -47 21 c-63 28 -206 34 -282 13z
m149 -70 c38 -20 53 -69 48 -162 -3 -67 -6 -78 -31 -99 -58 -50 -138 -19 -153
60 -11 61 0 153 22 177 35 39 70 47 114 24z m87 -615 c78 -28 67 -147 -17
-190 -50 -25 -149 -27 -190 -4 -54 33 -77 116 -48 179 11 25 13 25 118 25 59
0 121 -5 137 -10z"/>
<path fill="#2B2C2E" d="M6158 2116 c-99 -27 -175 -102 -204 -204 -24 -80 -16 -239 16 -310
49 -113 154 -168 304 -160 85 5 187 41 221 78 15 17 15 21 0 50 -12 23 -21 30
-33 24 -96 -40 -187 -46 -239 -14 -38 23 -71 83 -80 145 l-6 45 186 0 187 0 6
26 c11 44 -1 177 -20 213 -54 102 -192 146 -338 107z m142 -91 c19 -21 24 -39
28 -105 l5 -80 -97 0 -96 0 0 43 c0 60 18 116 45 143 33 33 84 32 115 -1z"/>
<path fill="#2B2C2E" d="M6720 2119 c-131 -21 -120 -15 -120 -64 0 -42 2 -45 33 -53 l32 -8 0
-230 0 -229 -32 -3 c-31 -3 -33 -6 -33 -43 l0 -39 200 0 200 0 0 40 0 40 -49
0 c-86 0 -81 -11 -81 195 l0 183 40 16 c46 18 141 21 171 6 18 -10 19 -6 19
89 0 97 0 99 -25 105 -62 16 -171 -43 -216 -118 l-19 -31 0 67 c0 56 -3 69
-19 78 -22 11 -24 11 -101 -1z"/>
<path fill="#2B2C2E" d="M5265 975 c-49 -7 -91 -14 -92 -14 -2 -1 -3 -16 -3 -35 0 -31 3 -34
43 -42 l42 -9 3 -384 c2 -414 4 -401 -50 -401 -26 0 -28 -3 -28 -40 l0 -40
176 0 175 0 -3 37 c-3 35 -6 38 -38 43 l-35 5 -3 434 c-1 300 -6 438 -13 448
-13 15 -52 15 -174 -2z"/>
<path fill="#2B2C2E" d="M2930 861 c0 -36 3 -40 30 -46 19 -4 35 -17 44 -33 7 -15 73 -195
147 -400 l134 -372 84 2 83 3 137 386 c76 212 141 390 144 396 4 6 23 14 42
17 33 7 35 9 35 46 l0 40 -150 0 -150 0 0 -39 c0 -39 0 -40 45 -47 25 -3 45
-9 45 -12 0 -3 -40 -130 -90 -281 -49 -152 -92 -289 -96 -306 -4 -24 -24 30
-95 265 -49 162 -90 302 -91 310 -2 10 11 17 45 23 47 9 47 10 47 48 l0 39
-195 0 -195 0 0 -39z"/>
<path fill="#2B2C2E" d="M5700 835 c0 -8 -12 -45 -27 -81 -23 -60 -31 -69 -70 -86 -39 -17
-43 -22 -43 -53 0 -33 2 -35 35 -35 l35 0 0 -242 c0 -260 3 -274 52 -311 53
-39 187 -32 283 16 22 11 42 21 43 23 2 1 -1 19 -8 39 -9 28 -16 35 -29 30 -9
-4 -37 -9 -62 -12 -78 -9 -79 -6 -79 243 l0 214 80 0 80 0 0 45 0 45 -79 0
c-92 0 -91 -2 -91 106 l0 74 -60 0 c-46 0 -60 -3 -60 -15z"/>
<path fill="#2B2C2E" d="M3938 675 c-59 -15 -152 -57 -162 -74 -7 -10 23 -81 34 -81 3 0 31 9
63 20 36 13 82 20 127 20 62 0 74 -3 95 -25 19 -18 25 -35 25 -68 l0 -44 -71
-7 c-141 -14 -259 -68 -294 -135 -33 -65 -12 -185 42 -233 73 -66 207 -63 299
7 l32 24 6 -34 c5 -26 13 -36 33 -41 28 -7 178 2 194 11 5 4 9 22 9 41 0 31
-3 34 -29 34 l-29 0 -4 223 c-3 215 -4 224 -28 272 -36 69 -90 96 -202 101
-52 2 -105 -2 -140 -11z m182 -435 l0 -99 -30 -16 c-71 -37 -137 -5 -147 72
-10 77 56 142 145 143 l32 0 0 -100z"/>
<path fill="#2B2C2E" d="M4570 683 c-19 -1 -63 -6 -97 -9 l-63 -6 0 -34 c0 -30 4 -37 29 -45
l30 -10 3 -227 c3 -217 4 -229 26 -268 32 -55 71 -76 152 -82 80 -5 125 7 184
53 l44 33 5 -28 c11 -54 31 -63 129 -57 48 3 92 8 98 12 5 3 10 22 10 41 0 31
-2 34 -30 34 l-30 0 0 290 c0 273 -1 290 -19 299 -12 7 -54 7 -122 1 -57 -5
-110 -9 -117 -10 -9 0 -12 -12 -10 -37 3 -32 7 -38 36 -45 l32 -9 0 -213 c0
-249 1 -247 -99 -254 -56 -4 -60 -3 -78 24 -16 25 -18 55 -21 283 -3 260 -5
273 -42 269 -8 -1 -31 -3 -50 -5z"/>
</g>
</svg>
